<svg height="150" viewBox="0 0 1413 150" width="1413" xmlns="http://www.w3.org/2000/svg"><title>Dot cipher</title><g fill="none" fill-rule="evenodd"><g transform="translate(191)"><circle cx="3" cy="139" fill="#49B882" r="3" transform="rotate(180 3 139)"/><circle cx="3" cy="123" fill="#49B882" r="3" transform="rotate(180 3 123)"/><circle cx="3" cy="107" fill="#49B882" r="3" transform="rotate(180 3 107)"/><circle cx="3" cy="91" fill="#49B882" r="3" transform="rotate(180 3 91)"/><circle cx="3" cy="75" fill="#49B882" r="3" transform="rotate(180 3 75)"/><circle cx="3" cy="59" fill="#49B882" r="3" transform="rotate(180 3 59)"/><circle cx="3" cy="43" fill="#49B882" r="3" transform="rotate(180 3 43)"/><circle cx="3" cy="27" fill="#D0B8FB" r="3" transform="rotate(180 3 27)"/><circle cx="3" cy="11" fill="#49B882" r="3" transform="rotate(180 3 11)"/><circle cx="14" cy="131" fill="#49B882" r="3" transform="rotate(180 14 131)"/><circle cx="14" cy="115" fill="#49B882" r="3" transform="rotate(180 14 115)"/><circle cx="14" cy="99" fill="#49B882" r="3" transform="rotate(180 14 99)"/><circle cx="14" cy="83" fill="#49B882" r="3" transform="rotate(180 14 83)"/><circle cx="14" cy="67" fill="#49B882" r="3" transform="rotate(180 14 67)"/><circle cx="14" cy="51" fill="#49B882" r="3" transform="rotate(180 14 51)"/><circle cx="25" cy="139" fill="#49B882" r="3" transform="rotate(180 25 139)"/><circle cx="25" cy="123" fill="#E365A6" r="3" transform="rotate(180 25 123)"/><circle cx="25" cy="107" fill="#49B882" r="3" transform="rotate(180 25 107)"/><circle cx="25" cy="91" fill="#49B882" r="3" transform="rotate(180 25 91)"/><circle cx="36" cy="147" fill="#49B882" r="3" transform="rotate(180 36 147)"/><circle cx="36" cy="131" fill="#49B882" r="3" transform="rotate(180 36 131)"/><circle cx="36" cy="115" fill="#49B882" r="3" transform="rotate(180 36 115)"/><circle cx="36" cy="99" fill="#49B882" r="3" transform="rotate(180 36 99)"/><circle cx="36" cy="67" fill="#49B882" r="3" transform="rotate(180 36 67)"/><circle cx="36" cy="51" fill="#49B882" r="3" transform="rotate(180 36 51)"/><circle cx="47" cy="139" fill="#49B882" r="3" transform="rotate(180 47 139)"/><circle cx="47" cy="123" fill="#49B882" r="3" transform="rotate(180 47 123)"/><circle cx="47" cy="91" fill="#49B882" r="3" transform="rotate(180 47 91)"/><circle cx="47" cy="75" fill="#49B882" r="3" transform="rotate(180 47 75)"/><circle cx="47" cy="59" fill="#49B882" r="3" transform="rotate(180 47 59)"/><circle cx="58" cy="147" fill="#49B882" r="3" transform="rotate(180 58 147)"/><circle cx="58" cy="131" fill="#49B882" r="3" transform="rotate(180 58 131)"/><circle cx="58" cy="115" fill="#49B882" r="3" transform="rotate(180 58 115)"/><circle cx="58" cy="99" fill="#49B882" r="3" transform="rotate(180 58 99)"/><circle cx="58" cy="67" fill="#49B882" r="3" transform="rotate(180 58 67)"/><circle cx="58" cy="51" fill="#49B882" r="3" transform="rotate(180 58 51)"/><circle cx="58" cy="35" fill="#49B882" r="3" transform="rotate(180 58 35)"/><circle cx="58" cy="19" fill="#49B882" r="3" transform="rotate(180 58 19)"/><circle cx="69" cy="139" fill="#49B882" r="3" transform="rotate(180 69 139)"/><circle cx="69" cy="123" fill="#49B882" r="3" transform="rotate(180 69 123)"/><circle cx="69" cy="107" fill="#49B882" r="3" transform="rotate(180 69 107)"/><circle cx="69" cy="91" fill="#49B882" r="3" transform="rotate(180 69 91)"/><circle cx="69" cy="75" fill="#49B882" r="3" transform="rotate(180 69 75)"/><circle cx="69" cy="59" fill="#98CFAC" r="3" transform="rotate(180 69 59)"/><circle cx="80" cy="147" fill="#49B882" r="3" transform="rotate(180 80 147)"/><circle cx="80" cy="131" fill="#49B882" r="3" transform="rotate(180 80 131)"/><circle cx="80" cy="115" fill="#49B882" r="3" transform="rotate(180 80 115)"/><circle cx="80" cy="99" fill="#E365A6" r="3" transform="rotate(180 80 99)"/><circle cx="80" cy="83" fill="#49B882" r="3" transform="rotate(180 80 83)"/><circle cx="91" cy="139" fill="#49B882" r="3" transform="rotate(180 91 139)"/><circle cx="91" cy="123" fill="#49B882" r="3" transform="rotate(180 91 123)"/><circle cx="91" cy="107" fill="#49B882" r="3" transform="rotate(180 91 107)"/><circle cx="91" cy="91" fill="#49B882" r="3" transform="rotate(180 91 91)"/><circle cx="91" cy="75" fill="#49B882" r="3" transform="rotate(180 91 75)"/><circle cx="91" cy="59" fill="#F9FAFB" r="3" transform="rotate(180 91 59)"/><circle cx="91" cy="43" fill="#49B882" r="3" transform="rotate(180 91 43)"/><circle cx="91" cy="27" fill="#49B882" r="3" transform="rotate(180 91 27)"/><circle cx="102" cy="147" fill="#49B882" r="3" transform="rotate(180 102 147)"/><circle cx="102" cy="131" fill="#49B882" r="3" transform="rotate(180 102 131)"/><circle cx="102" cy="115" fill="#49B882" r="3" transform="rotate(180 102 115)"/><circle cx="102" cy="99" fill="#49B882" r="3" transform="rotate(180 102 99)"/><circle cx="102" cy="83" fill="#49B882" r="3" transform="rotate(180 102 83)"/><circle cx="102" cy="67" fill="#49B882" r="3" transform="rotate(180 102 67)"/><circle cx="102" cy="51" fill="#49B882" r="3" transform="rotate(180 102 51)"/><circle cx="102" cy="19" fill="#49B882" r="3" transform="rotate(180 102 19)"/><circle cx="113" cy="139" fill="#49B882" r="3" transform="rotate(180 113 139)"/><circle cx="113" cy="123" fill="#FAD9E7" r="3" transform="rotate(180 113 123)"/><circle cx="113" cy="107" fill="#49B882" r="3" transform="rotate(180 113 107)"/><circle cx="113" cy="91" fill="#49B882" r="3" transform="rotate(180 113 91)"/><circle cx="124" cy="147" fill="#49B882" r="3" transform="rotate(180 124 147)"/><circle cx="124" cy="131" fill="#49B882" r="3" transform="rotate(180 124 131)"/><circle cx="124" cy="115" fill="#49B882" r="3" transform="rotate(180 124 115)"/><circle cx="124" cy="99" fill="#49B882" r="3" transform="rotate(180 124 99)"/><circle cx="124" cy="83" fill="#F9FAFB" r="3" transform="rotate(180 124 83)"/><circle cx="124" cy="67" fill="#49B882" r="3" transform="rotate(180 124 67)"/><circle cx="135" cy="139" fill="#49B882" r="3" transform="rotate(180 135 139)"/><circle cx="135" cy="123" fill="#49B882" r="3" transform="rotate(180 135 123)"/><circle cx="135" cy="107" fill="#49B882" r="3" transform="rotate(180 135 107)"/><circle cx="135" cy="91" fill="#49B882" r="3" transform="rotate(180 135 91)"/><circle cx="135" cy="75" fill="#49B882" r="3" transform="rotate(180 135 75)"/><circle cx="135" cy="59" fill="#49B882" r="3" transform="rotate(180 135 59)"/><circle cx="135" cy="43" fill="#49B882" r="3" transform="rotate(180 135 43)"/><circle cx="135" cy="11" fill="#49B882" r="3" transform="rotate(180 135 11)"/><circle cx="146" cy="147" fill="#49B882" r="3" transform="rotate(180 146 147)"/><circle cx="146" cy="131" fill="#49B882" r="3" transform="rotate(180 146 131)"/><circle cx="146" cy="115" fill="#49B882" r="3" transform="rotate(180 146 115)"/><circle cx="146" cy="99" fill="#49B882" r="3" transform="rotate(180 146 99)"/><circle cx="146" cy="83" fill="#49B882" r="3" transform="rotate(180 146 83)"/><circle cx="146" cy="51" fill="#49B882" r="3" transform="rotate(180 146 51)"/><circle cx="157" cy="139" fill="#49B882" r="3" transform="rotate(180 157 139)"/><circle cx="157" cy="123" fill="#49B882" r="3" transform="rotate(180 157 123)"/><circle cx="157" cy="107" fill="#49B882" r="3" transform="rotate(180 157 107)"/><circle cx="157" cy="91" fill="#49B882" r="3" transform="rotate(180 157 91)"/><circle cx="157" cy="75" fill="#49B882" r="3" transform="rotate(180 157 75)"/><circle cx="157" cy="59" fill="#49B882" r="3" transform="rotate(180 157 59)"/><circle cx="157" cy="43" fill="#49B882" r="3" transform="rotate(180 157 43)"/><circle cx="157" cy="27" fill="#F9FAFB" r="3" transform="rotate(180 157 27)"/><circle cx="168" cy="147" fill="#49B882" r="3" transform="rotate(180 168 147)"/><circle cx="168" cy="131" fill="#49B882" r="3" transform="rotate(180 168 131)"/><circle cx="168" cy="115" fill="#49B882" r="3" transform="rotate(180 168 115)"/><circle cx="168" cy="99" fill="#49B882" r="3" transform="rotate(180 168 99)"/><circle cx="168" cy="83" fill="#49B882" r="3" transform="rotate(180 168 83)"/><circle cx="168" cy="67" fill="#49B882" r="3" transform="rotate(180 168 67)"/><circle cx="168" cy="51" fill="#98CFAC" r="3" transform="rotate(180 168 51)"/><circle cx="168" cy="35" fill="#49B882" r="3" transform="rotate(180 168 35)"/><circle cx="179" cy="139" fill="#E365A6" r="3" transform="rotate(180 179 139)"/><circle cx="179" cy="123" fill="#49B882" r="3" transform="rotate(180 179 123)"/><circle cx="179" cy="107" fill="#49B882" r="3" transform="rotate(180 179 107)"/><circle cx="179" cy="91" fill="#49B882" r="3" transform="rotate(180 179 91)"/><circle cx="190" cy="147" fill="#49B882" r="3" transform="rotate(180 190 147)"/><circle cx="190" cy="131" fill="#49B882" r="3" transform="rotate(180 190 131)"/><circle cx="190" cy="99" fill="#49B882" r="3" transform="rotate(180 190 99)"/><circle cx="190" cy="83" fill="#49B882" r="3" transform="rotate(180 190 83)"/><circle cx="201" cy="139" fill="#49B882" r="3" transform="rotate(180 201 139)"/><circle cx="201" cy="123" fill="#49B882" r="3" transform="rotate(180 201 123)"/><circle cx="201" cy="107" fill="#49B882" r="3" transform="rotate(180 201 107)"/><circle cx="201" cy="91" fill="#49B882" r="3" transform="rotate(180 201 91)"/><circle cx="201" cy="75" fill="#49B882" r="3" transform="rotate(180 201 75)"/><circle cx="201" cy="59" fill="#49B882" r="3" transform="rotate(180 201 59)"/><circle cx="201" cy="43" fill="#49B882" r="3" transform="rotate(180 201 43)"/><circle cx="201" cy="11" fill="#49B882" r="3" transform="rotate(180 201 11)"/><circle cx="212" cy="147" fill="#49B882" r="3" transform="rotate(180 212 147)"/><circle cx="212" cy="131" fill="#49B882" r="3" transform="rotate(180 212 131)"/><circle cx="212" cy="115" fill="#99CEFF" r="3" transform="rotate(180 212 115)"/><circle cx="212" cy="99" fill="#49B882" r="3" transform="rotate(180 212 99)"/><circle cx="212" cy="83" fill="#49B882" r="3" transform="rotate(180 212 83)"/><circle cx="223" cy="139" fill="#49B882" r="3" transform="rotate(180 223 139)"/><circle cx="223" cy="123" fill="#49B882" r="3" transform="rotate(180 223 123)"/><circle cx="223" cy="107" fill="#49B882" r="3" transform="rotate(180 223 107)"/><circle cx="223" cy="91" fill="#49B882" r="3" transform="rotate(180 223 91)"/><circle cx="223" cy="75" fill="#49B882" r="3" transform="rotate(180 223 75)"/><circle cx="223" cy="43" fill="#49B882" r="3" transform="rotate(180 223 43)"/><circle cx="234" cy="147" fill="#49B882" r="3" transform="rotate(180 234 147)"/><circle cx="234" cy="131" fill="#49B882" r="3" transform="rotate(180 234 131)"/><circle cx="234" cy="115" fill="#49B882" r="3" transform="rotate(180 234 115)"/><circle cx="234" cy="99" fill="#49B882" r="3" transform="rotate(180 234 99)"/><circle cx="234" cy="83" fill="#49B882" r="3" transform="rotate(180 234 83)"/><circle cx="234" cy="67" fill="#F9FAFB" r="3" transform="rotate(180 234 67)"/><circle cx="234" cy="51" fill="#49B882" r="3" transform="rotate(180 234 51)"/><circle cx="245" cy="139" fill="#49B882" r="3" transform="rotate(180 245 139)"/><circle cx="245" cy="123" fill="#49B882" r="3" transform="rotate(180 245 123)"/><circle cx="245" cy="107" fill="#49B882" r="3" transform="rotate(180 245 107)"/><circle cx="245" cy="91" fill="#49B882" r="3" transform="rotate(180 245 91)"/><circle cx="245" cy="75" fill="#49B882" r="3" transform="rotate(180 245 75)"/><circle cx="245" cy="59" fill="#49B882" r="3" transform="rotate(180 245 59)"/><circle cx="245" cy="43" fill="#98CFAC" r="3" transform="rotate(180 245 43)"/><circle cx="256" cy="147" fill="#49B882" r="3" transform="rotate(180 256 147)"/><circle cx="256" cy="131" fill="#49B882" r="3" transform="rotate(180 256 131)"/><circle cx="256" cy="115" fill="#49B882" r="3" transform="rotate(180 256 115)"/><circle cx="256" cy="99" fill="#F9FAFB" r="3" transform="rotate(180 256 99)"/><circle cx="256" cy="83" fill="#49B882" r="3" transform="rotate(180 256 83)"/><circle cx="267" cy="139" fill="#49B882" r="3" transform="rotate(180 267 139)"/><circle cx="267" cy="123" fill="#49B882" r="3" transform="rotate(180 267 123)"/><circle cx="267" cy="107" fill="#49B882" r="3" transform="rotate(180 267 107)"/><circle cx="267" cy="91" fill="#49B882" r="3" transform="rotate(180 267 91)"/><circle cx="267" cy="75" fill="#49B882" r="3" transform="rotate(180 267 75)"/><circle cx="267" cy="59" fill="#F9FAFB" r="3" transform="rotate(180 267 59)"/><circle cx="267" cy="43" fill="#49B882" r="3" transform="rotate(180 267 43)"/><circle cx="267" cy="27" fill="#49B882" r="3" transform="rotate(180 267 27)"/><circle cx="278" cy="147" fill="#49B882" r="3" transform="rotate(180 278 147)"/><circle cx="278" cy="131" fill="#49B882" r="3" transform="rotate(180 278 131)"/><circle cx="278" cy="99" fill="#49B882" r="3" transform="rotate(180 278 99)"/><circle cx="278" cy="83" fill="#49B882" r="3" transform="rotate(180 278 83)"/><circle cx="289" cy="139" fill="#49B882" r="3" transform="rotate(180 289 139)"/><circle cx="289" cy="123" fill="#49B882" r="3" transform="rotate(180 289 123)"/><circle cx="289" cy="107" fill="#49B882" r="3" transform="rotate(180 289 107)"/><circle cx="289" cy="91" fill="#49B882" r="3" transform="rotate(180 289 91)"/><circle cx="289" cy="75" fill="#49B882" r="3" transform="rotate(180 289 75)"/><circle cx="289" cy="59" fill="#49B882" r="3" transform="rotate(180 289 59)"/><circle cx="289" cy="27" fill="#49B882" r="3" transform="rotate(180 289 27)"/><circle cx="289" cy="11" fill="#49B882" r="3" transform="rotate(180 289 11)"/><circle cx="300" cy="147" fill="#49B882" r="3" transform="rotate(180 300 147)"/><circle cx="300" cy="131" fill="#49B882" r="3" transform="rotate(180 300 131)"/><circle cx="300" cy="99" fill="#49B882" r="3" transform="rotate(180 300 99)"/><circle cx="300" cy="83" fill="#49B882" r="3" transform="rotate(180 300 83)"/><circle cx="311" cy="139" fill="#49B882" r="3" transform="rotate(180 311 139)"/><circle cx="311" cy="123" fill="#E365A6" r="3" transform="rotate(180 311 123)"/><circle cx="311" cy="107" fill="#49B882" r="3" transform="rotate(180 311 107)"/><circle cx="311" cy="91" fill="#49B882" r="3" transform="rotate(180 311 91)"/><circle cx="311" cy="75" fill="#49B882" r="3" transform="rotate(180 311 75)"/><circle cx="322" cy="147" fill="#F9FAFB" r="3" transform="rotate(180 322 147)"/><circle cx="322" cy="131" fill="#49B882" r="3" transform="rotate(180 322 131)"/><circle cx="322" cy="115" fill="#49B882" r="3" transform="rotate(180 322 115)"/><circle cx="322" cy="99" fill="#49B882" r="3" transform="rotate(180 322 99)"/><circle cx="322" cy="83" fill="#49B882" r="3" transform="rotate(180 322 83)"/><circle cx="322" cy="67" fill="#49B882" r="3" transform="rotate(180 322 67)"/><circle cx="322" cy="51" fill="#49B882" r="3" transform="rotate(180 322 51)"/><circle cx="322" cy="35" fill="#49B882" r="3" transform="rotate(180 322 35)"/><circle cx="333" cy="139" fill="#49B882" r="3" transform="rotate(180 333 139)"/><circle cx="333" cy="123" fill="#49B882" r="3" transform="rotate(180 333 123)"/><circle cx="333" cy="107" fill="#49B882" r="3" transform="rotate(180 333 107)"/><circle cx="333" cy="91" fill="#99CEFF" r="3" transform="rotate(180 333 91)"/><circle cx="333" cy="75" fill="#49B882" r="3" transform="rotate(180 333 75)"/><circle cx="344" cy="147" fill="#F9FAFB" r="3" transform="rotate(180 344 147)"/><circle cx="344" cy="131" fill="#49B882" r="3" transform="rotate(180 344 131)"/><circle cx="344" cy="115" fill="#49B882" r="3" transform="rotate(180 344 115)"/><circle cx="344" cy="99" fill="#49B882" r="3" transform="rotate(180 344 99)"/><circle cx="344" cy="83" fill="#49B882" r="3" transform="rotate(180 344 83)"/><circle cx="344" cy="67" fill="#49B882" r="3" transform="rotate(180 344 67)"/><circle cx="355" cy="139" fill="#49B882" r="3" transform="rotate(180 355 139)"/><circle cx="355" cy="123" fill="#49B882" r="3" transform="rotate(180 355 123)"/><circle cx="355" cy="107" fill="#98CFAC" r="3" transform="rotate(180 355 107)"/><circle cx="355" cy="91" fill="#49B882" r="3" transform="rotate(180 355 91)"/><circle cx="366" cy="147" fill="#49B882" r="3" transform="rotate(180 366 147)"/><circle cx="366" cy="131" fill="#49B882" r="3" transform="rotate(180 366 131)"/><circle cx="366" cy="115" fill="#49B882" r="3" transform="rotate(180 366 115)"/><circle cx="366" cy="99" fill="#49B882" r="3" transform="rotate(180 366 99)"/><circle cx="366" cy="83" fill="#49B882" r="3" transform="rotate(180 366 83)"/><circle cx="366" cy="51" fill="#49B882" r="3" transform="rotate(180 366 51)"/><circle cx="377" cy="139" fill="#49B882" r="3" transform="rotate(180 377 139)"/><circle cx="377" cy="123" fill="#49B882" r="3" transform="rotate(180 377 123)"/><circle cx="377" cy="107" fill="#49B882" r="3" transform="rotate(180 377 107)"/><circle cx="377" cy="91" fill="#49B882" r="3" transform="rotate(180 377 91)"/><circle cx="377" cy="75" fill="#49B882" r="3" transform="rotate(180 377 75)"/><circle cx="377" cy="59" fill="#49B882" r="3" transform="rotate(180 377 59)"/><circle cx="377" cy="43" fill="#98CFAC" r="3" transform="rotate(180 377 43)"/><circle cx="377" cy="27" fill="#49B882" r="3" transform="rotate(180 377 27)"/><circle cx="388" cy="147" fill="#49B882" r="3" transform="rotate(180 388 147)"/><circle cx="388" cy="131" fill="#49B882" r="3" transform="rotate(180 388 131)"/><circle cx="388" cy="115" fill="#49B882" r="3" transform="rotate(180 388 115)"/><circle cx="388" cy="99" fill="#49B882" r="3" transform="rotate(180 388 99)"/><circle cx="388" cy="83" fill="#49B882" r="3" transform="rotate(180 388 83)"/><circle cx="388" cy="67" fill="#49B882" r="3" transform="rotate(180 388 67)"/><circle cx="388" cy="35" fill="#49B882" r="3" transform="rotate(180 388 35)"/><circle cx="399" cy="139" fill="#49B882" r="3" transform="rotate(180 399 139)"/><circle cx="399" cy="123" fill="#49B882" r="3" transform="rotate(180 399 123)"/><circle cx="399" cy="107" fill="#49B882" r="3" transform="rotate(180 399 107)"/><circle cx="399" cy="91" fill="#F9FAFB" r="3" transform="rotate(180 399 91)"/><circle cx="399" cy="75" fill="#49B882" r="3" transform="rotate(180 399 75)"/><circle cx="410" cy="147" fill="#49B882" r="3" transform="rotate(180 410 147)"/><circle cx="410" cy="131" fill="#49B882" r="3" transform="rotate(180 410 131)"/><circle cx="410" cy="115" fill="#49B882" r="3" transform="rotate(180 410 115)"/><circle cx="410" cy="99" fill="#49B882" r="3" transform="rotate(180 410 99)"/><circle cx="410" cy="83" fill="#49B882" r="3" transform="rotate(180 410 83)"/><circle cx="410" cy="67" fill="#FAD9E7" r="3" transform="rotate(180 410 67)"/><circle cx="410" cy="51" fill="#49B882" r="3" transform="rotate(180 410 51)"/><circle cx="421" cy="139" fill="#49B882" r="3" transform="rotate(180 421 139)"/><circle cx="421" cy="123" fill="#E365A6" r="3" transform="rotate(180 421 123)"/><circle cx="421" cy="107" fill="#49B882" r="3" transform="rotate(180 421 107)"/><circle cx="421" cy="91" fill="#49B882" r="3" transform="rotate(180 421 91)"/><circle cx="432" cy="147" fill="#49B882" r="3" transform="rotate(180 432 147)"/><circle cx="432" cy="131" fill="#49B882" r="3" transform="rotate(180 432 131)"/><circle cx="432" cy="115" fill="#99CEFF" r="3" transform="rotate(180 432 115)"/><circle cx="432" cy="99" fill="#49B882" r="3" transform="rotate(180 432 99)"/><circle cx="432" cy="83" fill="#49B882" r="3" transform="rotate(180 432 83)"/><circle cx="432" cy="67" fill="#49B882" r="3" transform="rotate(180 432 67)"/><circle cx="443" cy="139" fill="#49B882" r="3" transform="rotate(180 443 139)"/><circle cx="443" cy="123" fill="#49B882" r="3" transform="rotate(180 443 123)"/><circle cx="443" cy="107" fill="#49B882" r="3" transform="rotate(180 443 107)"/><circle cx="443" cy="91" fill="#49B882" r="3" transform="rotate(180 443 91)"/><circle cx="443" cy="75" fill="#49B882" r="3" transform="rotate(180 443 75)"/><circle cx="443" cy="59" fill="#49B882" r="3" transform="rotate(180 443 59)"/><circle cx="443" cy="43" fill="#49B882" r="3" transform="rotate(180 443 43)"/><circle cx="443" cy="27" fill="#F9FAFB" r="3" transform="rotate(180 443 27)"/><circle cx="454" cy="147" fill="#49B882" r="3" transform="rotate(180 454 147)"/><circle cx="454" cy="131" fill="#49B882" r="3" transform="rotate(180 454 131)"/><circle cx="454" cy="115" fill="#F9FAFB" r="3" transform="rotate(180 454 115)"/><circle cx="454" cy="99" fill="#49B882" r="3" transform="rotate(180 454 99)"/><circle cx="465" cy="139" fill="#49B882" r="3" transform="rotate(180 465 139)"/><circle cx="465" cy="123" fill="#49B882" r="3" transform="rotate(180 465 123)"/><circle cx="465" cy="107" fill="#49B882" r="3" transform="rotate(180 465 107)"/><circle cx="465" cy="91" fill="#49B882" r="3" transform="rotate(180 465 91)"/><circle cx="465" cy="75" fill="#49B882" r="3" transform="rotate(180 465 75)"/><circle cx="465" cy="59" fill="#49B882" r="3" transform="rotate(180 465 59)"/><circle cx="465" cy="43" fill="#49B882" r="3" transform="rotate(180 465 43)"/><circle cx="465" cy="27" fill="#FAD9E7" r="3" transform="rotate(180 465 27)"/><circle cx="465" cy="11" fill="#49B882" r="3" transform="rotate(180 465 11)"/><circle cx="476" cy="147" fill="#E365A6" r="3" transform="rotate(180 476 147)"/><circle cx="476" cy="131" fill="#49B882" r="3" transform="rotate(180 476 131)"/><circle cx="476" cy="115" fill="#49B882" r="3" transform="rotate(180 476 115)"/><circle cx="476" cy="99" fill="#49B882" r="3" transform="rotate(180 476 99)"/><circle cx="476" cy="83" fill="#49B882" r="3" transform="rotate(180 476 83)"/><circle cx="476" cy="67" fill="#49B882" r="3" transform="rotate(180 476 67)"/><circle cx="487" cy="123" fill="#49B882" r="3" transform="rotate(180 487 123)"/><circle cx="487" cy="107" fill="#49B882" r="3" transform="rotate(180 487 107)"/><circle cx="498" cy="147" fill="#49B882" r="3" transform="rotate(180 498 147)"/><circle cx="498" cy="115" fill="#49B882" r="3" transform="rotate(180 498 115)"/><circle cx="498" cy="99" fill="#49B882" r="3" transform="rotate(180 498 99)"/><circle cx="498" cy="83" fill="#49B882" r="3" transform="rotate(180 498 83)"/><circle cx="498" cy="67" fill="#49B882" r="3" transform="rotate(180 498 67)"/><circle cx="498" cy="51" fill="#49B882" r="3" transform="rotate(180 498 51)"/><circle cx="498" cy="35" fill="#49B882" r="3" transform="rotate(180 498 35)"/><circle cx="509" cy="139" fill="#49B882" r="3" transform="rotate(180 509 139)"/><circle cx="509" cy="123" fill="#99CEFF" r="3" transform="rotate(180 509 123)"/><circle cx="509" cy="107" fill="#49B882" r="3" transform="rotate(180 509 107)"/><circle cx="509" cy="91" fill="#49B882" r="3" transform="rotate(180 509 91)"/><circle cx="509" cy="75" fill="#49B882" r="3" transform="rotate(180 509 75)"/><circle cx="520" cy="147" fill="#49B882" r="3" transform="rotate(180 520 147)"/><circle cx="520" cy="131" fill="#49B882" r="3" transform="rotate(180 520 131)"/><circle cx="520" cy="115" fill="#49B882" r="3" transform="rotate(180 520 115)"/><circle cx="520" cy="99" fill="#E365A6" r="3" transform="rotate(180 520 99)"/><circle cx="520" cy="83" fill="#49B882" r="3" transform="rotate(180 520 83)"/><circle cx="520" cy="67" fill="#49B882" r="3" transform="rotate(180 520 67)"/><circle cx="520" cy="51" fill="#49B882" r="3" transform="rotate(180 520 51)"/><circle cx="531" cy="139" fill="#49B882" r="3" transform="rotate(180 531 139)"/><circle cx="531" cy="123" fill="#49B882" r="3" transform="rotate(180 531 123)"/><circle cx="531" cy="107" fill="#49B882" r="3" transform="rotate(180 531 107)"/><circle cx="531" cy="91" fill="#49B882" r="3" transform="rotate(180 531 91)"/><circle cx="531" cy="75" fill="#49B882" r="3" transform="rotate(180 531 75)"/><circle cx="531" cy="59" fill="#49B882" r="3" transform="rotate(180 531 59)"/><circle cx="531" cy="43" fill="#49B882" r="3" transform="rotate(180 531 43)"/><circle cx="531" cy="11" fill="#49B882" r="3" transform="rotate(180 531 11)"/><circle cx="542" cy="147" fill="#49B882" r="3" transform="rotate(180 542 147)"/><circle cx="542" cy="131" fill="#49B882" r="3" transform="rotate(180 542 131)"/><circle cx="542" cy="115" fill="#49B882" r="3" transform="rotate(180 542 115)"/><circle cx="542" cy="99" fill="#49B882" r="3" transform="rotate(180 542 99)"/><circle cx="542" cy="83" fill="#49B882" r="3" transform="rotate(180 542 83)"/><circle cx="542" cy="67" fill="#49B882" r="3" transform="rotate(180 542 67)"/><circle cx="542" cy="51" fill="#49B882" r="3" transform="rotate(180 542 51)"/><circle cx="542" cy="19" fill="#49B882" r="3" transform="rotate(180 542 19)"/><circle cx="553" cy="139" fill="#49B882" r="3" transform="rotate(180 553 139)"/><circle cx="553" cy="123" fill="#49B882" r="3" transform="rotate(180 553 123)"/><circle cx="553" cy="107" fill="#49B882" r="3" transform="rotate(180 553 107)"/><circle cx="553" cy="91" fill="#49B882" r="3" transform="rotate(180 553 91)"/><circle cx="553" cy="75" fill="#49B882" r="3" transform="rotate(180 553 75)"/><circle cx="553" cy="59" fill="#99CEFF" r="3" transform="rotate(180 553 59)"/><circle cx="564" cy="147" fill="#49B882" r="3" transform="rotate(180 564 147)"/><circle cx="564" cy="131" fill="#E365A6" r="3" transform="rotate(180 564 131)"/><circle cx="564" cy="115" fill="#49B882" r="3" transform="rotate(180 564 115)"/><circle cx="564" cy="99" fill="#49B882" r="3" transform="rotate(180 564 99)"/><circle cx="564" cy="83" fill="#49B882" r="3" transform="rotate(180 564 83)"/><circle cx="575" cy="139" fill="#49B882" r="3" transform="rotate(180 575 139)"/><circle cx="575" cy="123" fill="#49B882" r="3" transform="rotate(180 575 123)"/><circle cx="575" cy="91" fill="#49B882" r="3" transform="rotate(180 575 91)"/><circle cx="586" cy="147" fill="#F9FAFB" r="3" transform="rotate(180 586 147)"/><circle cx="586" cy="131" fill="#49B882" r="3" transform="rotate(180 586 131)"/><circle cx="586" cy="115" fill="#49B882" r="3" transform="rotate(180 586 115)"/><circle cx="586" cy="99" fill="#49B882" r="3" transform="rotate(180 586 99)"/><circle cx="586" cy="83" fill="#49B882" r="3" transform="rotate(180 586 83)"/><circle cx="586" cy="67" fill="#49B882" r="3" transform="rotate(180 586 67)"/><circle cx="586" cy="51" fill="#49B882" r="3" transform="rotate(180 586 51)"/><circle cx="586" cy="35" fill="#49B882" r="3" transform="rotate(180 586 35)"/><circle cx="597" cy="139" fill="#49B882" r="3" transform="rotate(180 597 139)"/><circle cx="597" cy="123" fill="#49B882" r="3" transform="rotate(180 597 123)"/><circle cx="597" cy="91" fill="#49B882" r="3" transform="rotate(180 597 91)"/><circle cx="597" cy="75" fill="#49B882" r="3" transform="rotate(180 597 75)"/><circle cx="608" cy="147" fill="#49B882" r="3" transform="rotate(180 608 147)"/><circle cx="608" cy="131" fill="#49B882" r="3" transform="rotate(180 608 131)"/><circle cx="608" cy="115" fill="#49B882" r="3" transform="rotate(180 608 115)"/><circle cx="608" cy="99" fill="#49B882" r="3" transform="rotate(180 608 99)"/><circle cx="608" cy="83" fill="#49B882" r="3" transform="rotate(180 608 83)"/><circle cx="608" cy="67" fill="#49B882" r="3" transform="rotate(180 608 67)"/><circle cx="608" cy="51" fill="#49B882" r="3" transform="rotate(180 608 51)"/><circle cx="608" cy="19" fill="#49B882" r="3" transform="rotate(180 608 19)"/><circle cx="619" cy="139" fill="#E365A6" r="3" transform="rotate(180 619 139)"/><circle cx="619" cy="123" fill="#49B882" r="3" transform="rotate(180 619 123)"/><circle cx="619" cy="107" fill="#49B882" r="3" transform="rotate(180 619 107)"/><circle cx="630" cy="147" fill="#49B882" r="3" transform="rotate(180 630 147)"/><circle cx="630" cy="131" fill="#49B882" r="3" transform="rotate(180 630 131)"/><circle cx="630" cy="115" fill="#49B882" r="3" transform="rotate(180 630 115)"/><circle cx="630" cy="99" fill="#49B882" r="3" transform="rotate(180 630 99)"/><circle cx="630" cy="83" fill="#49B882" r="3" transform="rotate(180 630 83)"/><circle cx="630" cy="67" fill="#F9FAFB" r="3" transform="rotate(180 630 67)"/><circle cx="630" cy="51" fill="#49B882" r="3" transform="rotate(180 630 51)"/><circle cx="630" cy="35" fill="#49B882" r="3" transform="rotate(180 630 35)"/><circle cx="641" cy="139" fill="#49B882" r="3" transform="rotate(180 641 139)"/><circle cx="641" cy="107" fill="#49B882" r="3" transform="rotate(180 641 107)"/><circle cx="641" cy="91" fill="#49B882" r="3" transform="rotate(180 641 91)"/><circle cx="641" cy="75" fill="#49B882" r="3" transform="rotate(180 641 75)"/><circle cx="652" cy="147" fill="#49B882" r="3" transform="rotate(180 652 147)"/><circle cx="652" cy="131" fill="#49B882" r="3" transform="rotate(180 652 131)"/><circle cx="652" cy="115" fill="#49B882" r="3" transform="rotate(180 652 115)"/><circle cx="652" cy="83" fill="#49B882" r="3" transform="rotate(180 652 83)"/><circle cx="652" cy="67" fill="#49B882" r="3" transform="rotate(180 652 67)"/><circle cx="652" cy="51" fill="#49B882" r="3" transform="rotate(180 652 51)"/><circle cx="652" cy="35" fill="#49B882" r="3" transform="rotate(180 652 35)"/><circle cx="652" cy="19" fill="#49B882" r="3" transform="rotate(180 652 19)"/><circle cx="663" cy="139" fill="#FAD9E7" r="3" transform="rotate(180 663 139)"/><circle cx="663" cy="123" fill="#49B882" r="3" transform="rotate(180 663 123)"/><circle cx="663" cy="107" fill="#49B882" r="3" transform="rotate(180 663 107)"/><circle cx="663" cy="91" fill="#49B882" r="3" transform="rotate(180 663 91)"/><circle cx="663" cy="75" fill="#49B882" r="3" transform="rotate(180 663 75)"/><circle cx="674" cy="147" fill="#49B882" r="3" transform="rotate(180 674 147)"/><circle cx="674" cy="131" fill="#49B882" r="3" transform="rotate(180 674 131)"/><circle cx="674" cy="115" fill="#49B882" r="3" transform="rotate(180 674 115)"/><circle cx="674" cy="99" fill="#49B882" r="3" transform="rotate(180 674 99)"/><circle cx="674" cy="83" fill="#49B882" r="3" transform="rotate(180 674 83)"/><circle cx="674" cy="67" fill="#49B882" r="3" transform="rotate(180 674 67)"/><circle cx="674" cy="51" fill="#49B882" r="3" transform="rotate(180 674 51)"/><circle cx="674" cy="35" fill="#F9FAFB" r="3" transform="rotate(180 674 35)"/><circle cx="685" cy="139" fill="#49B882" r="3" transform="rotate(180 685 139)"/><circle cx="685" cy="123" fill="#49B882" r="3" transform="rotate(180 685 123)"/><circle cx="685" cy="107" fill="#49B882" r="3" transform="rotate(180 685 107)"/><circle cx="685" cy="91" fill="#49B882" r="3" transform="rotate(180 685 91)"/><circle cx="685" cy="75" fill="#49B882" r="3" transform="rotate(180 685 75)"/><circle cx="685" cy="59" fill="#49B882" r="3" transform="rotate(180 685 59)"/><circle cx="685" cy="43" fill="#98CFAC" r="3" transform="rotate(180 685 43)"/><circle cx="696" cy="147" fill="#49B882" r="3" transform="rotate(180 696 147)"/><circle cx="696" cy="131" fill="#98CFAC" r="3" transform="rotate(180 696 131)"/><circle cx="696" cy="115" fill="#49B882" r="3" transform="rotate(180 696 115)"/><circle cx="707" cy="139" fill="#49B882" r="3" transform="rotate(180 707 139)"/><circle cx="707" cy="123" fill="#49B882" r="3" transform="rotate(180 707 123)"/><circle cx="707" cy="107" fill="#49B882" r="3" transform="rotate(180 707 107)"/><circle cx="707" cy="91" fill="#49B882" r="3" transform="rotate(180 707 91)"/><circle cx="707" cy="75" fill="#49B882" r="3" transform="rotate(180 707 75)"/><circle cx="707" cy="59" fill="#49B882" r="3" transform="rotate(180 707 59)"/><circle cx="707" cy="27" fill="#49B882" r="3" transform="rotate(180 707 27)"/><circle cx="718" cy="147" fill="#49B882" r="3" transform="rotate(180 718 147)"/><circle cx="718" cy="131" fill="#E365A6" r="3" transform="rotate(180 718 131)"/><circle cx="718" cy="115" fill="#49B882" r="3" transform="rotate(180 718 115)"/><circle cx="718" cy="99" fill="#49B882" r="3" transform="rotate(180 718 99)"/><circle cx="729" cy="139" fill="#49B882" r="3" transform="rotate(180 729 139)"/><circle cx="729" cy="123" fill="#98CFAC" r="3" transform="rotate(180 729 123)"/><circle cx="729" cy="107" fill="#49B882" r="3" transform="rotate(180 729 107)"/><circle cx="729" cy="91" fill="#49B882" r="3" transform="rotate(180 729 91)"/><circle cx="729" cy="75" fill="#49B882" r="3" transform="rotate(180 729 75)"/><circle cx="729" cy="59" fill="#49B882" r="3" transform="rotate(180 729 59)"/><circle cx="740" cy="147" fill="#49B882" r="3" transform="rotate(180 740 147)"/><circle cx="740" cy="131" fill="#F9FAFB" r="3" transform="rotate(180 740 131)"/><circle cx="740" cy="115" fill="#49B882" r="3" transform="rotate(180 740 115)"/><circle cx="740" cy="99" fill="#49B882" r="3" transform="rotate(180 740 99)"/><circle cx="740" cy="83" fill="#49B882" r="3" transform="rotate(180 740 83)"/><circle cx="751" cy="139" fill="#49B882" r="3" transform="rotate(180 751 139)"/><circle cx="751" cy="123" fill="#49B882" r="3" transform="rotate(180 751 123)"/><circle cx="751" cy="107" fill="#49B882" r="3" transform="rotate(180 751 107)"/><circle cx="751" cy="91" fill="#49B882" r="3" transform="rotate(180 751 91)"/><circle cx="751" cy="75" fill="#49B882" r="3" transform="rotate(180 751 75)"/><circle cx="751" cy="59" fill="#98CFAC" r="3" transform="rotate(180 751 59)"/><circle cx="751" cy="43" fill="#49B882" r="3" transform="rotate(180 751 43)"/><circle cx="762" cy="147" fill="#E365A6" r="3" transform="rotate(180 762 147)"/><circle cx="762" cy="131" fill="#49B882" r="3" transform="rotate(180 762 131)"/><circle cx="773" cy="139" fill="#49B882" r="3" transform="rotate(180 773 139)"/><circle cx="773" cy="123" fill="#49B882" r="3" transform="rotate(180 773 123)"/><circle cx="773" cy="107" fill="#49B882" r="3" transform="rotate(180 773 107)"/><circle cx="773" cy="91" fill="#49B882" r="3" transform="rotate(180 773 91)"/><circle cx="773" cy="75" fill="#99CEFF" r="3" transform="rotate(180 773 75)"/><circle cx="773" cy="59" fill="#49B882" r="3" transform="rotate(180 773 59)"/><circle cx="784" cy="147" fill="#F9FAFB" r="3" transform="rotate(180 784 147)"/><circle cx="784" cy="131" fill="#49B882" r="3" transform="rotate(180 784 131)"/><circle cx="784" cy="115" fill="#49B882" r="3" transform="rotate(180 784 115)"/><circle cx="795" cy="139" fill="#49B882" r="3" transform="rotate(180 795 139)"/><circle cx="795" cy="123" fill="#49B882" r="3" transform="rotate(180 795 123)"/><circle cx="795" cy="107" fill="#49B882" r="3" transform="rotate(180 795 107)"/><circle cx="795" cy="91" fill="#49B882" r="3" transform="rotate(180 795 91)"/><circle cx="795" cy="59" fill="#49B882" r="3" transform="rotate(180 795 59)"/><circle cx="806" cy="147" fill="#49B882" r="3" transform="rotate(180 806 147)"/><circle cx="806" cy="131" fill="#49B882" r="3" transform="rotate(180 806 131)"/><circle cx="806" cy="115" fill="#49B882" r="3" transform="rotate(180 806 115)"/><circle cx="806" cy="99" fill="#49B882" r="3" transform="rotate(180 806 99)"/><circle cx="806" cy="83" fill="#49B882" r="3" transform="rotate(180 806 83)"/><circle cx="806" cy="67" fill="#49B882" r="3" transform="rotate(180 806 67)"/><circle cx="806" cy="51" fill="#49B882" r="3" transform="rotate(180 806 51)"/><circle cx="806" cy="35" fill="#F9FAFB" r="3" transform="rotate(180 806 35)"/><circle cx="806" cy="19" fill="#49B882" r="3" transform="rotate(180 806 19)"/><circle cx="806" cy="3" fill="#49B882" r="3" transform="rotate(180 806 3)"/><circle cx="817" cy="139" fill="#49B882" r="3" transform="rotate(180 817 139)"/><circle cx="817" cy="123" fill="#49B882" r="3" transform="rotate(180 817 123)"/><circle cx="817" cy="107" fill="#49B882" r="3" transform="rotate(180 817 107)"/><circle cx="817" cy="91" fill="#49B882" r="3" transform="rotate(180 817 91)"/><circle cx="817" cy="75" fill="#49B882" r="3" transform="rotate(180 817 75)"/><circle cx="817" cy="59" fill="#49B882" r="3" transform="rotate(180 817 59)"/><circle cx="817" cy="43" fill="#98CFAC" r="3" transform="rotate(180 817 43)"/><circle cx="828" cy="147" fill="#49B882" r="3" transform="rotate(180 828 147)"/><circle cx="828" cy="131" fill="#E365A6" r="3" transform="rotate(180 828 131)"/><circle cx="839" cy="139" fill="#49B882" r="3" transform="rotate(180 839 139)"/><circle cx="839" cy="123" fill="#49B882" r="3" transform="rotate(180 839 123)"/><circle cx="839" cy="107" fill="#49B882" r="3" transform="rotate(180 839 107)"/><circle cx="839" cy="91" fill="#F9FAFB" r="3" transform="rotate(180 839 91)"/><circle cx="839" cy="75" fill="#49B882" r="3" transform="rotate(180 839 75)"/><circle cx="850" cy="147" fill="#F9FAFB" r="3" transform="rotate(180 850 147)"/><circle cx="850" cy="131" fill="#49B882" r="3" transform="rotate(180 850 131)"/><circle cx="850" cy="115" fill="#49B882" r="3" transform="rotate(180 850 115)"/><circle cx="850" cy="99" fill="#49B882" r="3" transform="rotate(180 850 99)"/><circle cx="850" cy="83" fill="#49B882" r="3" transform="rotate(180 850 83)"/><circle cx="850" cy="67" fill="#49B882" r="3" transform="rotate(180 850 67)"/><circle cx="850" cy="51" fill="#49B882" r="3" transform="rotate(180 850 51)"/><circle cx="861" cy="139" fill="#49B882" r="3" transform="rotate(180 861 139)"/><circle cx="861" cy="123" fill="#49B882" r="3" transform="rotate(180 861 123)"/><circle cx="861" cy="107" fill="#49B882" r="3" transform="rotate(180 861 107)"/><circle cx="861" cy="91" fill="#49B882" r="3" transform="rotate(180 861 91)"/><circle cx="861" cy="75" fill="#49B882" r="3" transform="rotate(180 861 75)"/><circle cx="861" cy="59" fill="#49B882" r="3" transform="rotate(180 861 59)"/><circle cx="861" cy="27" fill="#49B882" r="3" transform="rotate(180 861 27)"/><circle cx="872" cy="147" fill="#49B882" r="3" transform="rotate(180 872 147)"/><circle cx="872" cy="131" fill="#49B882" r="3" transform="rotate(180 872 131)"/><circle cx="872" cy="115" fill="#49B882" r="3" transform="rotate(180 872 115)"/><circle cx="872" cy="83" fill="#49B882" r="3" transform="rotate(180 872 83)"/><circle cx="872" cy="67" fill="#49B882" r="3" transform="rotate(180 872 67)"/><circle cx="883" cy="139" fill="#FAD9E7" r="3" transform="rotate(180 883 139)"/><circle cx="883" cy="123" fill="#49B882" r="3" transform="rotate(180 883 123)"/><circle cx="883" cy="107" fill="#49B882" r="3" transform="rotate(180 883 107)"/><circle cx="883" cy="91" fill="#49B882" r="3" transform="rotate(180 883 91)"/><circle cx="894" cy="147" fill="#F9FAFB" r="3" transform="rotate(180 894 147)"/><circle cx="894" cy="131" fill="#49B882" r="3" transform="rotate(180 894 131)"/><circle cx="894" cy="115" fill="#49B882" r="3" transform="rotate(180 894 115)"/><circle cx="894" cy="99" fill="#49B882" r="3" transform="rotate(180 894 99)"/><circle cx="894" cy="83" fill="#49B882" r="3" transform="rotate(180 894 83)"/><circle cx="894" cy="67" fill="#49B882" r="3" transform="rotate(180 894 67)"/><circle cx="894" cy="51" fill="#49B882" r="3" transform="rotate(180 894 51)"/><circle cx="894" cy="35" fill="#49B882" r="3" transform="rotate(180 894 35)"/><circle cx="905" cy="139" fill="#F9FAFB" r="3" transform="rotate(180 905 139)"/><circle cx="905" cy="123" fill="#49B882" r="3" transform="rotate(180 905 123)"/><circle cx="905" cy="107" fill="#49B882" r="3" transform="rotate(180 905 107)"/><circle cx="905" cy="91" fill="#49B882" r="3" transform="rotate(180 905 91)"/><circle cx="905" cy="75" fill="#49B882" r="3" transform="rotate(180 905 75)"/><circle cx="905" cy="59" fill="#49B882" r="3" transform="rotate(180 905 59)"/><circle cx="916" cy="147" fill="#49B882" r="3" transform="rotate(180 916 147)"/><circle cx="916" cy="131" fill="#49B882" r="3" transform="rotate(180 916 131)"/><circle cx="916" cy="115" fill="#F9FAFB" r="3" transform="rotate(180 916 115)"/><circle cx="916" cy="99" fill="#49B882" r="3" transform="rotate(180 916 99)"/><circle cx="916" cy="83" fill="#49B882" r="3" transform="rotate(180 916 83)"/><circle cx="916" cy="67" fill="#49B882" r="3" transform="rotate(180 916 67)"/><circle cx="916" cy="51" fill="#49B882" r="3" transform="rotate(180 916 51)"/><circle cx="916" cy="35" fill="#49B882" r="3" transform="rotate(180 916 35)"/><circle cx="916" cy="19" fill="#49B882" r="3" transform="rotate(180 916 19)"/><circle cx="916" cy="3" fill="#49B882" r="3" transform="rotate(180 916 3)"/><circle cx="927" cy="139" fill="#49B882" r="3" transform="rotate(180 927 139)"/><circle cx="927" cy="123" fill="#49B882" r="3" transform="rotate(180 927 123)"/><circle cx="927" cy="107" fill="#49B882" r="3" transform="rotate(180 927 107)"/><circle cx="927" cy="91" fill="#49B882" r="3" transform="rotate(180 927 91)"/><circle cx="927" cy="75" fill="#49B882" r="3" transform="rotate(180 927 75)"/><circle cx="927" cy="59" fill="#49B882" r="3" transform="rotate(180 927 59)"/><circle cx="927" cy="43" fill="#98CFAC" r="3" transform="rotate(180 927 43)"/><circle cx="938" cy="147" fill="#49B882" r="3" transform="rotate(180 938 147)"/><circle cx="938" cy="131" fill="#E365A6" r="3" transform="rotate(180 938 131)"/><circle cx="938" cy="115" fill="#49B882" r="3" transform="rotate(180 938 115)"/><circle cx="938" cy="99" fill="#49B882" r="3" transform="rotate(180 938 99)"/><circle cx="938" cy="83" fill="#49B882" r="3" transform="rotate(180 938 83)"/><circle cx="949" cy="139" fill="#49B882" r="3" transform="rotate(180 949 139)"/><circle cx="949" cy="123" fill="#49B882" r="3" transform="rotate(180 949 123)"/><circle cx="949" cy="107" fill="#49B882" r="3" transform="rotate(180 949 107)"/><circle cx="949" cy="91" fill="#49B882" r="3" transform="rotate(180 949 91)"/><circle cx="949" cy="75" fill="#49B882" r="3" transform="rotate(180 949 75)"/><circle cx="949" cy="59" fill="#49B882" r="3" transform="rotate(180 949 59)"/><circle cx="949" cy="43" fill="#49B882" r="3" transform="rotate(180 949 43)"/><circle cx="949" cy="27" fill="#F9FAFB" r="3" transform="rotate(180 949 27)"/><circle cx="960" cy="147" fill="#49B882" r="3" transform="rotate(180 960 147)"/><circle cx="960" cy="131" fill="#49B882" r="3" transform="rotate(180 960 131)"/><circle cx="960" cy="115" fill="#49B882" r="3" transform="rotate(180 960 115)"/><circle cx="960" cy="99" fill="#49B882" r="3" transform="rotate(180 960 99)"/><circle cx="960" cy="67" fill="#49B882" r="3" transform="rotate(180 960 67)"/><circle cx="960" cy="51" fill="#49B882" r="3" transform="rotate(180 960 51)"/><circle cx="971" cy="139" fill="#49B882" r="3" transform="rotate(180 971 139)"/><circle cx="971" cy="123" fill="#49B882" r="3" transform="rotate(180 971 123)"/><circle cx="971" cy="107" fill="#49B882" r="3" transform="rotate(180 971 107)"/><circle cx="971" cy="91" fill="#49B882" r="3" transform="rotate(180 971 91)"/><circle cx="971" cy="75" fill="#49B882" r="3" transform="rotate(180 971 75)"/><circle cx="971" cy="59" fill="#F9FAFB" r="3" transform="rotate(180 971 59)"/><circle cx="971" cy="43" fill="#49B882" r="3" transform="rotate(180 971 43)"/><circle cx="982" cy="131" fill="#49B882" r="3" transform="rotate(180 982 131)"/><circle cx="982" cy="115" fill="#49B882" r="3" transform="rotate(180 982 115)"/><circle cx="982" cy="99" fill="#49B882" r="3" transform="rotate(180 982 99)"/><circle cx="993" cy="139" fill="#49B882" r="3" transform="rotate(180 993 139)"/><circle cx="993" cy="123" fill="#FAD9E7" r="3" transform="rotate(180 993 123)"/><circle cx="993" cy="107" fill="#49B882" r="3" transform="rotate(180 993 107)"/><circle cx="993" cy="91" fill="#49B882" r="3" transform="rotate(180 993 91)"/><circle cx="993" cy="75" fill="#49B882" r="3" transform="rotate(180 993 75)"/><circle cx="993" cy="59" fill="#49B882" r="3" transform="rotate(180 993 59)"/><circle cx="1004" cy="147" fill="#49B882" r="3" transform="rotate(180 1004 147)"/><circle cx="1004" cy="131" fill="#49B882" r="3" transform="rotate(180 1004 131)"/><circle cx="1004" cy="115" fill="#49B882" r="3" transform="rotate(180 1004 115)"/><circle cx="1004" cy="99" fill="#49B882" r="3" transform="rotate(180 1004 99)"/><circle cx="1004" cy="83" fill="#49B882" r="3" transform="rotate(180 1004 83)"/><circle cx="1004" cy="67" fill="#49B882" r="3" transform="rotate(180 1004 67)"/><circle cx="1004" cy="51" fill="#F9FAFB" r="3" transform="rotate(180 1004 51)"/><circle cx="1004" cy="35" fill="#49B882" r="3" transform="rotate(180 1004 35)"/><circle cx="1004" cy="19" fill="#49B882" r="3" transform="rotate(180 1004 19)"/><circle cx="1015" cy="139" fill="#49B882" r="3" transform="rotate(180 1015 139)"/><circle cx="1015" cy="123" fill="#49B882" r="3" transform="rotate(180 1015 123)"/><circle cx="1015" cy="107" fill="#49B882" r="3" transform="rotate(180 1015 107)"/><circle cx="1015" cy="91" fill="#F9FAFB" r="3" transform="rotate(180 1015 91)"/><circle cx="1015" cy="75" fill="#49B882" r="3" transform="rotate(180 1015 75)"/><circle cx="1015" cy="59" fill="#49B882" r="3" transform="rotate(180 1015 59)"/><circle cx="1026" cy="147" fill="#FCC89B" r="3" transform="rotate(180 1026 147)"/><circle cx="1026" cy="131" fill="#49B882" r="3" transform="rotate(180 1026 131)"/><circle cx="1026" cy="115" fill="#49B882" r="3" transform="rotate(180 1026 115)"/><circle cx="1026" cy="99" fill="#49B882" r="3" transform="rotate(180 1026 99)"/></g></g></svg>